<?xml version="1.0" encoding="utf-8"?>
<!-- Generator: Adobe Illustrator 24.0.3, SVG Export Plug-In . SVG Version: 6.00 Build 0)  -->
<svg version="1.1" id="Layer_1" xmlns="http://www.w3.org/2000/svg" xmlns:xlink="http://www.w3.org/1999/xlink" x="0px" y="0px"
	 viewBox="0 0 400 400" style="enable-background:new 0 0 400 400;" xml:space="preserve">
<style type="text/css">
	.st0{fill:#A0A0A0;}
</style>
<g id="PyrmUb.tif">
	<g>
		<path class="st0" d="M90,296.1c0-63,0-126,0-189c0.1-0.2,0.3-0.4,0.4-0.6c2.3-8.6,8.3-13.3,17.1-13.3c60.7,0,121.5,0,182.3,0
			c9.9,0,17.1,7.2,17.1,17.1c0,60.8,0,121.7,0,182.5c0,2.2-0.4,4.5-1.1,6.6c-2.1,6-6.9,9-12.7,10.6c-63,0-126,0-189,0
			C96.5,308.1,91.9,303.4,90,296.1z M279.8,201.7c-0.1,0-0.3,0-0.5,0c0-6.4,0.1-12.9,0-19.4c-0.1-6.5-0.5-13.1-0.9-19.6
			c-1.5-22.8-18.5-39.8-41.2-41.1c-13.1-0.7-26.3-1.1-39.5-1c-14,0.1-28,0.2-41.9,1.6c-17.3,1.6-30.8,14-35.5,30.7
			c-2.7,9.6-2.6,19.4-2.7,29.1c-0.1,19.2,0.1,38.4,0.9,57.6c0.9,23.4,18.5,40.8,41.9,42c9.9,0.5,19.9,1,29.8,0.9
			c16.6-0.2,33.3-0.1,49.9-1.5c21.6-1.9,37-18.8,38.3-40.5C279.1,227.5,279.4,214.6,279.8,201.7z"/>
		<path class="st0" d="M265.5,199.1c-0.5,14.5-0.8,26.6-1.5,38.6c-0.8,15.2-9.2,25.7-22.8,28.3c-6.1,1.2-12.3,1.6-18.5,1.7
			c-14.1,0.3-28.1,0.4-42.2,0.2c-7.8-0.1-15.6-0.5-23.2-1.8c-14-2.2-22.9-11.6-24-25.7c-0.9-11.5-0.9-23.1-1.2-34.7
			c-0.2-7.3-0.4-14.6-0.2-21.9c0.3-8,0.6-16.1,1.8-24c2-13.3,11.4-22.3,24.7-23.6c11.3-1,22.6-1.2,33.9-1.4c9.4-0.2,18.9-0.2,28.3,0
			c6.5,0.2,13.1,0.6,19.5,1.8c13.3,2.3,22,11.3,23.3,24.7C264.7,174.9,265,188.2,265.5,199.1z M198.2,242.9
			c23.2,0,41.7-18.3,41.8-41.2c0.1-23-18.4-41.7-41.3-41.8c-23.1-0.1-41.6,18.4-41.7,41.3C157,224.5,175.2,242.9,198.2,242.9z
			 M241.7,167.8c5.4,0,9.6-4.2,9.7-9.5c0.1-5.2-4.6-9.9-9.9-9.8c-5.3,0.1-9.5,4.5-9.4,9.8C232.2,163.9,236.2,167.8,241.7,167.8z"/>
		<path class="st0" d="M225.4,201.6c0,15-12.1,26.9-27.3,26.9c-14.8,0-26.7-12.2-26.6-27.3c0-14.7,12.2-26.7,27.1-26.6
			C213.5,174.6,225.4,186.6,225.4,201.6z"/>
	</g>
</g>
</svg>
