<?xml version="1.0" encoding="utf-8"?>
<!-- Generator: Adobe Illustrator 24.0.3, SVG Export Plug-In . SVG Version: 6.00 Build 0)  -->
<svg version="1.1" id="Layer_1" xmlns="http://www.w3.org/2000/svg" xmlns:xlink="http://www.w3.org/1999/xlink" x="0px" y="0px"
	 viewBox="0 0 400 400" style="enable-background:new 0 0 400 400;" xml:space="preserve">
<style type="text/css">
	.st0{fill:#F15963;}
</style>
<g>
	<path class="st0" d="M329.4,238.5c-0.2,0.9-0.4,1.7-0.6,2.6c-0.1,0.5-0.3,1-0.4,1.5c-0.4,1.5-0.7,2.9-1.1,4.4
		c-2.6,6.6-5.3,13.2-7.9,19.8c-0.2,0.5-0.5,1-0.7,1.5c-0.3,0.6-0.7,1.1-1,1.7c-0.5,0.2-0.6,0.6-0.5,1.1c-2.2,2.5-4.4,5-6.5,7.5
		c-4.4,5.1-8.2,10.7-13.2,15.1c-16.1,14.3-35.5,22.6-56,27.9c-23.3,6-45.4-0.9-67.1-9.1c-4.7-1.8-9.1-4.4-13.8-5.8
		c-12.2-3.6-22.3-10.9-32.2-18.3c-11.6-8.6-20.5-19.9-28-32.3c-2.8-4.7-6.6-8.9-8.5-14c-6.6-17.6-7.6-35.9-4.8-54.4
		c0.6-3.9,2.9-8.1,2.1-11.6c-0.8-3.6-4.5-6.5-7-9.8c-0.1-0.2-0.4-0.2-0.6-0.4c-1.2-2.3-2.4-4.7-3.6-7c-1.3-4.2-2.5-8.5-3.8-12.7
		c-0.2-0.9-0.4-1.9-0.5-2.8c-0.3-2.1-1.2-4.2-0.9-6.3c1.5-12.7,1.4-25.6,5.4-38c0.7-1.1,1.4-2.1,2.1-3.2
		c5.4-7.4,10.8-14.8,16.3-22.1c1.7-2.2,3.4-4.4,5.2-6.6c0,0,0,0,0,0c7.5-5.7,14.9-11.3,22.4-17l0.4,0c0,0,0.2-0.4,0.2-0.4
		c7.7-3.8,15.4-7.5,23.1-11.3c2.7,0.5,5.3,1,8,1.4c0.6,0.6,1.2,1.2,1.8,1.8c-0.2,0.4,0,0.7,0.4,0.8c0,2.4,0.1,4.8,0.1,7.2
		c-0.4,0.3-0.6,0.6-0.4,1.1c-2.9,2-5.7,4.3-8.8,5.8c-3,1.5-6.3,2.3-10.5,3.7c4.1,4.5,7.2,8,10.4,11.5c1.9,2.1,3.9,2.2,6.4,1.1
		c8.5-3.6,17.1-7,25.6-10.5c1.9-0.5,3.8-0.9,5.8-1.4c1.4-0.2,2.8-0.3,4.2-0.5c7.6-1,15.1-2.4,22.7-3c8.4-0.7,16.5,1.5,24.4,4.2
		c0,0,0.1-0.1,0.1-0.1c11.1,6.7,22.2,13.4,33.2,20.1c0.4,0.4,0.8,0.8,1.3,1.2c3.4,3.4,6.8,6.9,10.2,10.3c1,0.9,2,1.7,3,2.6
		c3.4,2.9,6.7,5.8,10.1,8.7c0.9,0.9,1.8,1.9,2.7,2.8c1.3,4.3,3.8,7.6,7.3,10.3c-0.2,0.5,0,0.8,0.4,1.1c4.1,7,8.2,14,12.3,21l0,0.4
		c0,0,0.4,0.2,0.4,0.2c0.3,0.6,0.7,1.2,1,1.8c0,0-0.1-0.1-0.1-0.1c2.6,8,5.2,16.1,7.8,24.1c0.1,1.4,0.2,2.9,0.4,4.3
		c0.3,2.4,0.5,4.8,0.8,7.3c0.3,2.8,0.6,5.7,0.8,8.5c0.7,5.6,2,11.3,1.9,16.9C331.2,215.2,330.1,226.9,329.4,238.5z M121.2,133.3
		c6.6-0.2,9.3-4.1,12.4-7.7c7.7-9.2,16.9-16.7,26.6-23.7c5.2-3.8,10-7.8,16.1-10.6c17.1-7.8,33.5-5.9,49.4,2.8
		c7.9,4.3,11.5,13.7,8.1,20.8c-3.9,8.3-10.2,13.8-19.9,14.3c-2.9,0.2-5.4-0.3-6.8-2.9c-1.6-3,0.7-5.1,2.6-6.7
		c2.6-2.3,5.6-4.2,9.1-6.7c-1.6-1.9-2.7-3.8-4.3-5c-11.3-8.9-30.9-7-39.1-0.5c-11.3,8.9-21.8,18.4-31.7,28.9
		c-6.3,6.7-12.4,13.7-22.4,15.9c-11.1,2.5-17.6-1.4-17.7-12.8c0-5.9,1.2-11.9,2.5-17.6c1-4.3,3-8.4,4.7-12.9
		c-5.4-4.1-10.5-7.9-16.1-12.1c-1.7,2.5-2.9,4.2-3.9,6c-4.5,7.8-4.4,16.7-4.4,25.2c0,9.3,1.6,18.6,5.6,27.2
		c2.1,4.7,5.6,7.8,11.4,6.3c4.2-1.1,7.4,1.1,9,4.3c1.7,3.4,1.9,7.7-1.2,10.7c-5.9,5.6-7.4,12.6-7.9,20.2c-1,15.8-0.1,31.1,9.7,44.6
		c3.3,4.6,6.1,9.7,8.7,14.7c6.4,12.1,16.6,20.9,27.9,27.2c17.1,9.5,35.1,17.5,54,22.9c12.9,3.6,25.9,4.2,39.1,1.4
		c12.1-2.6,23.1-7.9,33.6-14c16.6-9.8,27.4-24.5,33-42.7c8.8-28.6,4.4-57.4-0.7-85.9c-2.6-14.6-11.3-26.8-19.6-38.8
		c-2.7-3.9-5.4-8-8.9-11.2c-6.9-6.6-14.3-12.6-21.6-18.8c-23.4-20.1-50.1-25.9-79.7-17.4c-15.9,4.5-29.9,12.6-42.8,22.8
		c-7.8,6.2-12.5,14.4-15,23.8C120.6,127.4,121.2,130.3,121.2,133.3z M102.6,86.6c4.2,2.7,7.9,5.2,11.7,7.6c1.4,0.9,2.8,2.1,4.3,2.4
		c1.4,0.3,3.6,0.2,4.3-0.7c0.7-0.8,0.4-3.4-0.4-4.2c-4.1-4.2-8.4-8.1-13.1-12.5C107,81.9,104.9,84.1,102.6,86.6z M137.8,83.3
		c-2-6.5-7.5-10.5-11-16.3c-2.6,1.2-4.6,2.1-6.7,3.1C124.1,76.3,131,81.8,137.8,83.3z"/>
	<path class="st0" d="M60.1,204c0.4-2.8,0.8-5.6,1.3-8.4c0.8-3.7,1.3-7.5,2.6-11.1c2.1-5.8,3.4-6.3,10.4-5.5
		c2.3,2.5,1.2,5.3,0.8,8.1c-1.1,8-2.6,16-2.9,24.1c-0.6,15.7,4,30.2,11.5,43.7c3.8,6.9,7.9,13.7,12.3,20.1
		c8.8,12.7,19.8,23.1,33.9,30c3.6,1.8,6.9,4.2,10.2,6.7c11.1,8.3,24.1,12.4,37,16.7c3.4,1.1,6.8,2.2,10.3,3.2
		c6.2,1.9,12.3,4,18.9,2.9c1.8-0.3,3.9,0,5.7,0.5c13.5,3.8,26.9,1.9,40.4,0.1c6.1-0.8,10.5-4.4,15.3-7.4c4.9-3,9.7-4,14.4,0.1
		c0.1,1.4,0.2,2.8,0.4,4.2c-0.3,1-0.6,2-0.9,2.9c-0.2,0.4-0.3,0.9-0.5,1.3c-4,3.2-7.9,6.4-11.9,9.6c0,0,0,0,0,0
		c-1.8,0.7-3.5,1.3-5.3,2c-1,0.1-1.9,0.2-2.9,0.3c-1.6,0.3-3.1,0.6-4.7,1c-0.4-0.2-0.7-0.2-1,0.2c-13.7,2.1-27.4,1.8-41.1,0.2
		c-3.5-0.4-7.1-0.1-10.6-0.1c-2.9-0.6-5.7-1.1-8.6-1.7c-5.6-1.7-11.2-3.4-16.8-4.9c-6.8-1.8-13.7-3.5-20.5-5.2
		c-1.9-0.9-3.9-1.8-5.8-2.6c-5.3-2.8-10.6-5.6-15.9-8.4c-0.8-0.6-1.6-1.3-2.4-1.9c-1.4-1.2-2.7-2.7-4.3-3.6c-4.8-3.1-9.8-5.8-14.6-9
		c-5.5-3.7-10.7-7.8-16-11.7c0,0,0,0,0,0c-3.7-4-7.4-8-11.1-11.9l-0.3,0.4c0,0,0.3-0.4,0.3-0.4c-4.4-7.4-8.6-14.8-13.3-22
		c-7.5-11.7-11.3-24.7-13.8-38.1c-1.1-6.1-0.9-12.4-1.2-18.6C59.7,207.8,59.9,205.9,60.1,204z"/>
	<path class="st0" d="M284.9,205.6c0.5,8.7-1.3,20.5-7.3,31.2c-1.8,3.3-4.5,6.1-7,8.9c-2,2.3-5.1,2.6-7.1,0.7
		c-1.4-1.3-1.8-4.2-1.8-6.4c0-1.7,1.2-3.6,2.3-5.1c3.6-5,5.7-10.5,5.8-16.6c0.3-11,2.2-22-1.3-32.8c-3-9.4-7.7-17.9-15-24.8
		c-8.4-8-18.8-8.8-29.5-8.2c-11.6,0.6-22.6,3.9-33.2,8.4c-7.3,3.1-9.8,10.1-12.7,16.6c-5.9,13-5.3,26.8-2.4,40
		c3.4,15.7,17.3,25.2,33.3,22.7c12.6-2,22.8-7.7,28.7-20c3.2-6.8,5.5-13.1,4.9-21.1c-1.5-20-28.6-30.6-44.4-20.2
		c-1.6,1-3,2.6-4.7,3.2c-1.6,0.6-3.9,1-5.2,0.2c-1.3-0.8-2.4-3.1-2.3-4.7c0.1-2,1.2-4.1,2.5-5.7c5.9-7.7,14.3-11.2,23.5-12.2
		c15.8-1.6,28.5,4.9,38.5,16.6c5,5.9,4.8,13.9,5.5,21.2c1.3,13.1-4.3,23.9-11.1,34.7c-6.6,10.5-16.6,15.9-27.1,20.2
		c-9.2,3.7-19.6,4.6-29.7,2.8c-9-1.6-15.6-7.4-20.4-14.8c-4.3-6.5-8.7-13.2-9.4-21.4c-0.4-4.5-0.4-9-0.7-13.5
		c-0.9-14.9,5.6-28,10.8-41.2c2.7-7.1,8.6-12.9,15.5-16.3c17.9-8.9,37.1-13.4,57-11.4c13.2,1.3,24.3,8,30.9,20.5
		c0.7,1.3,1.2,2.6,2.1,3.8C283.1,173.2,285.8,187.2,284.9,205.6z"/>
	<path class="st0" d="M125.8,209.8c0.6-13.3,3-26.3,7.8-38.6c4.4-11.3,11.1-21.6,20.8-29.5c8.6-7,17.6-13.2,28.2-16.7
		c3.6-1.2,7.4-1.8,11.2-1.8c3.4,0,4.4,2.3,3.2,5.5c-1.8,4.5-4.9,7.3-9.8,8.5c-11.8,2.9-21.3,9.4-29.1,18.6
		c-5.3,6.4-8,14.1-10.3,21.9c-4,13.6-6.3,27.4-4.3,41.8c0.8,5.8,2,11.3,5.5,16.1c4.7,6.5,9.3,13.3,14.7,19.3
		c2.9,3.2,7.5,4.9,11.2,7.5c4.6,3.1,4.9,6.6,0.9,10.5c-4.2,4.1-6.8,4.4-12.1,1.8c-10.6-5.2-18.7-12.7-25.3-22.7
		c-4.4-6.6-9.4-12.7-10.5-20.8C127,224.1,126.5,216.9,125.8,209.8z"/>
	<path class="st0" d="M209.3,185.8c7.9-0.3,12,2.6,14.2,8.8c5.7,15.7-10.1,30.7-22.5,30.5c-4.4-0.1-7.9-2.3-10-6
		c-4.3-7.4-5.1-15.1,0-22.3C195.6,190.3,201.5,185,209.3,185.8z M200.4,205.1c3.3,1.9,5.1,3.5,7.1,3.7c0.9,0.1,3-2.4,3.1-3.8
		c0.2-2.6-2.1-3.7-4.4-3.3C204.6,202,203.3,203.4,200.4,205.1z"/>
	<path class="st0" d="M269.5,271.5c-0.7,1.3-1.7,4.1-3.6,5.9c-3.5,3.3-7.5,1.9-9.5-2.5c-1.4-3-3.2-5.8-4.8-8.7
		c-2.6-5-0.5-9.9,4.8-11.1c0.9-0.2,1.9-0.2,2.8,0C262.1,256,269.5,266.7,269.5,271.5z"/>
	<path class="st0" d="M248.6,278.8c0.1,4.9-2.3,8.2-5.8,8.7c-3.3,0.5-5.7-1.2-7.2-5.5c-1-2.7-1.4-5.6-2.3-8.3
		c-1.4-4.2,0.8-6.9,3.8-9.2c3.7-2.8,6.9-1.8,8.3,2.6C246.6,271.2,247.6,275.4,248.6,278.8z"/>
	<path class="st0" d="M210.3,280.8c-1.9-5.5,0.3-9.4,4.8-12.3c3.6-2.3,6.3-1.1,7.5,3c1.9,6.3,0.9,12-3.7,16.6
		c-1.5,1.5-4.1,2.9-6,2.7c-2.7-0.3-3.1-3.2-3-5.8C210,283.6,210.2,282.2,210.3,280.8z"/>
	<path class="st0" d="M187.8,278.3c-0.1-5.2,3.2-10.1,7.9-11.7c4-1.3,7,0.9,6.4,4.8c-0.4,3-1.2,6.1-2.2,9c-1.6,4.5-4.1,6.2-7.2,5.7
		C189.7,285.6,187.9,282.8,187.8,278.3z"/>
</g>
</svg>
