<?xml version="1.0" encoding="utf-8"?>
<!-- Generator: Adobe Illustrator 24.0.3, SVG Export Plug-In . SVG Version: 6.00 Build 0)  -->
<svg version="1.1" id="Layer_1" xmlns="http://www.w3.org/2000/svg" xmlns:xlink="http://www.w3.org/1999/xlink" x="0px" y="0px"
	 viewBox="0 0 16 16" style="enable-background:new 0 0 16 16;" xml:space="preserve">
<style type="text/css">
	.st0{fill:#64C8D6;}
	.st1{fill:#5BAAB1;}
	.st2{fill:#FFFFFF;}
</style>
<g>
	<path class="st0" d="M14.8,10.7c0.6-0.2,1.2-1.6,1.2-2.3V3.2V1.7C16,0.8,15.3,0,14.4,0H6.1c-6,0-6.3,3.3-6,7l0.8,6.7
		c0.1,0.6,0.3,1.2,0.7,1.7C1.8,15.7,2,16,2.4,16h7.5c1.4,0,4.9,0.4,4.9-2.7L12.3,12"/>
	<g>
		<path class="st1" d="M11.8,7.9h-0.3c-1.4,0-3,0.1-3,1.8c0,0.5,0,1.2,0,1.7c0.1,2.7,0,3.3-3,3.3H5.5c0,0-3.1,0-2.9-3.3v0
			c0-5.6-1.7-10.1,9.1-10.1h0.2c1.7,0,3,1.6,2.9,3.5c0,0,0,0,0,0.1C14.7,6.6,13.4,7.9,11.8,7.9z"/>
	</g>
	<ellipse class="st2" cx="11.9" cy="4.7" rx="2.1" ry="2.3"/>
</g>
</svg>
