<?xml version="1.0" encoding="utf-8"?>
<!-- Generator: Adobe Illustrator 24.0.3, SVG Export Plug-In . SVG Version: 6.00 Build 0)  -->
<svg version="1.1" id="Layer_1" xmlns="http://www.w3.org/2000/svg" xmlns:xlink="http://www.w3.org/1999/xlink" x="0px" y="0px"
	 viewBox="0 0 16 16" style="enable-background:new 0 0 16 16;" xml:space="preserve">
<g>
	<path d="M16,16V0H0v16H16z M2.7,2.9h10.6v6.2c-0.9,0.2-1.5,0.4-2.6,0.6c1,1.2,1.8,2.2,2.9,3.5h-11V2.9z"/>
	<path d="M11.9,8.1c-1.3,0-2.3,0-3.5,0C8.2,9.3,8,10.5,7.7,12c-1,0-2.1,0-3.5,0c0-2.3,0-4.9,0-7.7c2.5,0,5,0,7.9,0
		C12.1,5.7,12,6.9,11.9,8.1z"/>
</g>
</svg>
