<?xml version="1.0" encoding="utf-8"?>
<!-- Generator: Adobe Illustrator 24.0.3, SVG Export Plug-In . SVG Version: 6.00 Build 0)  -->
<svg version="1.1" id="Layer_1" xmlns="http://www.w3.org/2000/svg" xmlns:xlink="http://www.w3.org/1999/xlink" x="0px" y="0px"
	 viewBox="0 0 79.7 122.4" style="enable-background:new 0 0 79.7 122.4;" xml:space="preserve">
<style type="text/css">
	.st0{fill:none;stroke:#F1F2F2;stroke-width:17;stroke-miterlimit:10;}
	.st1{fill:#BE1E2D;stroke:#000000;stroke-width:0.25;stroke-miterlimit:10;}
	.st2{fill:#D1D3D4;stroke:#000000;stroke-width:0.25;stroke-miterlimit:10;}
	.st3{stroke:#000000;stroke-miterlimit:10;}
	.st4{fill:#F15A29;stroke:#000000;stroke-width:0.25;stroke-miterlimit:10;}
	.st5{fill:#EF4136;stroke:#000000;stroke-width:0.25;stroke-miterlimit:10;}
	.st6{fill:none;stroke:#000000;stroke-width:0.25;stroke-miterlimit:10;}
	.st7{fill:#FBB040;stroke:#000000;stroke-width:0.25;stroke-miterlimit:10;}
	.st8{fill:none;stroke:#FFFFFF;stroke-width:0.25;stroke-miterlimit:10;}
	.st9{fill:none;stroke:#000000;stroke-width:0.5;stroke-miterlimit:10;}
	.st10{fill:#F7941D;stroke:#000000;stroke-width:0.25;stroke-miterlimit:10;}
</style>
<rect class="st0" width="79.7" height="122.4"/>
<polygon class="st1" points="39.9,48.2 39.1,52.9 39.5,53.3 39.6,55.2 38.6,57.4 36.9,58.7 36.1,59 33.4,59.3 30.7,59 28.3,58.2 
	26.7,57.1 25.4,55.8 22.9,53.1 23.9,52.4 26.1,50.9 26,47.9 27,49.1 28.8,50.5 30.7,51.4 31.7,51.8 34.4,51.8 36.8,51.1 37.9,50.2 
	"/>
<polygon class="st2" points="41.8,43.7 42.1,43.7 42.1,44.4 41.9,44.7 41.7,44.9 41.3,44.9 41,44.9 41,44.3 41.6,44.3 "/>
<polygon class="st3" points="24.1,52.3 22.1,52.1 21.3,53.6 20.4,53.6 18.6,54.8 17.4,55.6 16.2,56.2 11.6,59.7 8.8,62 6.8,65.3 
	5.3,68.1 4.8,70.5 3.9,73 2.6,78.1 1.5,84.3 1.1,86.4 1,87.7 0.7,88.2 0.7,89.6 1.5,90 3.2,90 4.4,90 4.8,90.2 5.5,90 6,90.3 
	8.7,91.5 10.6,92 13.9,92.4 16.4,92.6 18,92.6 18.3,94.5 21.5,96.2 24.6,98 28.6,100.1 30.8,101.1 35,100.2 37.9,99.7 40.9,99 
	43.8,97.8 46.1,96.5 46.5,97.3 47.1,96.6 47.8,96 47.9,94.8 47.5,94 47.4,93 47.5,91.1 47.5,90.2 47.4,88.5 47.4,87.8 50.2,86.8 
	52.7,86.4 54.2,86.5 55.3,86.4 56,85.7 56.9,85.3 57.8,84 57.7,82.3 57.2,82 57,80.1 56.3,76.2 56,74.5 55.9,73.3 55.6,71.6 
	55.6,69.9 55.4,69.4 55.3,68.5 54.7,66.1 53.9,63.3 53.3,62.1 52.3,60.5 51.1,59.5 49.3,58.2 45.7,55.9 41.7,53.8 39.5,52.6 
	39.7,55.4 38.6,57.4 36.4,58.8 34.3,59.3 32.1,59.3 29.1,58.7 26.7,57.1 24.8,55.2 22.9,53.1 "/>
<polygon class="st4" points="8.7,91.5 13.1,92.3 18,92.6 18.3,94.5 22.8,97 27.9,100.1 30.8,101.1 36.2,103 37.5,103.6 38.9,104.4 
	39.7,104.9 42.4,105.7 43,105.7 44.8,106.7 46.2,107.4 47.4,108.4 47,109.6 47.4,111 48,111.8 49,111.8 49.5,112.9 48.7,113.8 
	48.3,114.3 47.8,115.8 47.6,116.2 46.6,116.8 45.9,117.6 46.7,118.7 47.1,119.4 45.6,119.7 44.3,119 42.9,117 41.1,116.2 
	39.2,114.6 37.2,112.8 35.8,111.6 34.8,110.4 32.4,109 29.7,108.3 28.2,107.6 24.8,106.8 21.6,106.1 18.2,104.7 16.9,104 
	14.6,103.1 13,102.5 12.1,101.7 11,100.4 10.5,99 10.1,97.9 9.8,96.4 9.3,94.2 "/>
<polyline class="st5" points="51.3,118.2 51,118.2 50.4,117.4 49.7,116.6 48.8,115.9 49.2,115 50.2,114.4 50.5,113.7 51.2,114.4 
	51.9,115.6 52.5,117.1 52.5,117.7 51.5,118.3 51,119.6 50.8,120.1 49.7,120.6 48.5,120 47.4,119.5 46.3,118.1 46.4,117.8 
	47.8,117.2 48.1,116.4 49,117.6 49.6,118.3 50,119 50.5,118.7 50.9,118.9 50.9,119.3 50.9,119.4 "/>
<line class="st6" x1="50.9" y1="119.4" x2="51" y2="119.6"/>
<line class="st6" x1="51.3" y1="118.2" x2="51.5" y2="118.3"/>
<polygon class="st4" points="47.4,88.5 50.9,86.7 54.4,86.5 54.7,89 55.2,91.7 55.6,93.1 56.2,96.7 55.9,99.9 55,102.7 53.8,105.1 
	53.1,108.1 53.4,109.1 53.4,110.2 53.7,111.5 53.9,112.9 54.3,114.6 54.1,115.2 54,115.9 52.5,117.1 51.9,115.6 51.2,114.4 
	50.5,113.7 49.5,112.9 51.4,112.9 52.5,112.7 52.8,112 52.1,111.5 51.4,110.9 50.3,109.7 49.9,109.2 49.7,110.6 49.4,111.4 
	49,111.8 48,111.8 47.4,111 47,109.6 47.4,108.4 46.2,107.4 46.5,106.4 47.4,105.4 47.3,104.4 46.8,102.3 46.3,101.1 46.3,100 
	46.6,97.1 47.8,96 47.9,94.8 47.5,94 47.4,91.5 47.5,90.4 "/>
<polygon class="st7" points="15.9,103.6 12.7,105.1 12,111 12,113.7 13.4,117.1 14.9,118.2 15.2,119.7 16.6,120.6 17.4,122.4 
	46.8,122.4 77.5,122.1 75.2,119.5 72.2,115.5 70.2,114 66.7,110.9 64.3,108.7 62.3,107 59.3,104.7 54.9,102.9 53.9,104.8 
	53.2,107.8 53.4,109.1 53.7,111.3 54.1,113.7 54.3,114.6 54.1,115.2 54,115.9 52.5,117.1 52.5,118.2 51.6,118.8 50.9,118.6 
	50.5,118.7 50.9,119.3 50.8,120.1 49.7,120.6 48.2,119.9 47.1,119.4 45.9,119.7 44.7,119.5 42.9,117 40.8,115.9 39.5,114.9 
	37.5,113.1 35.6,111.3 34.4,110.2 32.6,109.1 29.3,108.1 28.2,107.6 21.6,106.1 "/>
<polygon class="st7" points="31.3,101.1 39.3,99.4 44.7,97.5 46.2,96.1 46.5,97.4 46.3,100.1 47.7,104.5 47.7,105.5 46.7,106.2 
	46,107.4 42.9,105.7 41,105.5 38.4,104 35.6,102.7 "/>
<polygon class="st4" points="41.8,39.1 40.9,45.5 40.6,46.5 39.9,48.2 37.9,50.2 37.2,50.9 36.6,51.2 34.4,51.8 32,51.8 30.8,51.5 
	29,50.6 27,49.2 25.9,47.8 25,45.2 24.1,40.8 24.5,36.6 24.1,35.1 25.3,33.6 25.1,32.3 25.8,31.5 27.1,31.5 29.1,29.5 30.4,29.5 
	31.5,28.7 32.6,28.7 33.5,28.1 34.5,28.9 35.8,29 37.3,28.1 38.8,29.4 39.3,30 40.1,31.7 40.7,33.2 41.4,35.1 41.4,37.3 "/>
<polygon class="st4" points="24.1,40.6 23.3,39.7 22.9,39 22.6,39 22.1,39.4 22.1,40.6 22.1,41.6 22.1,42.6 22.7,43.9 23.4,45 
	24.1,45.4 25,45.2 "/>
<polygon class="st4" points="41.8,39.5 42.7,38 43.2,38 43.5,38.8 43.5,39.7 43.2,41.9 42.6,43.3 42.2,44.1 42.1,44.1 42.1,43.7 
	41.8,43.7 41.6,44.3 41,44.3 "/>
<polygon class="st7" points="28.1,38.7 29.1,38.3 30.1,38.3 30.7,38.4 31.3,39.1 30.8,39.3 29.8,39.5 28.7,39.3 "/>
<path class="st8" d="M27.8,38.8"/>
<polygon class="st7" points="35.2,38.8 35.6,38 36.6,37.7 37.3,37.7 38,38 38.4,38.3 37.8,38.8 37,38.9 36.1,39 "/>
<polygon class="st1" points="25.9,37.2 26.4,36.2 27.4,35.9 28.5,36 29.5,36.2 30.9,36.2 30.9,36.9 30.4,37.1 29.2,36.9 27.7,37 "/>
<polygon class="st1" points="35,36.7 35.5,35.7 37.1,35.5 38,35.3 39.6,35.6 40.1,36 40,36.3 38.4,36.6 37.5,36.4 36.8,36.5 
	36.6,36.6 "/>
<polygon class="st9" points="28.8,38.4 29.1,39.1 29.4,39.3 29.8,39.3 30.1,39 30.3,38.4 29.5,38.3 "/>
<polygon class="st9" points="35.9,37.9 35.9,38.5 36.3,38.8 37,38.9 37.3,38.3 37.3,37.7 36.8,37.7 "/>
<polygon class="st6" points="29.4,38.8 29.5,39 29.8,38.9 29.8,38.7 29.6,38.7 "/>
<polygon class="st6" points="36.3,38.3 36.3,38.6 36.5,38.7 36.8,38.6 36.8,38.3 36.6,38.3 "/>
<polygon class="st5" points="30.9,47 32.3,46.3 33.2,46.3 33.7,46.3 34.3,46.1 35.2,46.1 36.6,46.5 36.1,46.7 35.2,46.7 34.7,46.8 
	33.7,46.8 32.6,46.8 31.7,47 "/>
<polygon class="st4" points="33.7,48.4 34.9,48.4 35.9,47.7 36.6,46.5 35.7,46.7 35.2,46.7 34,46.8 32.6,46.8 31.7,47 30.9,47 
	31,47.5 31.9,48.2 "/>
<polygon class="st10" points="31.3,36.7 32.4,37 32.7,38 32.9,40 32.9,41.6 32.7,43 32.9,43.6 33.3,43.7 34,43.7 34.6,43.2 35,42.5 
	34.6,41.8 34.1,41.2 33.7,40.3 33.7,38.8 33.7,38 33.7,36.7 34.9,36.2 35.4,35.3 36.3,35.1 36.8,32.9 35.4,30.6 32.9,30.2 
	29.8,31.1 29.5,33.5 30.3,35.3 31.1,35.9 "/>
<polyline class="st6" points="34.8,41.5 35.5,42.5 35.6,43 35.4,43.3 35,43.3 34.9,43.8 34.4,44.1 33.7,44.3 32.9,44.1 32.4,43.7 
	32.6,43.8 32.7,43.5 32.4,43.4 32.1,43.6 32.2,44.1 31.5,44 31.3,43.4 31.4,42.3 31.8,41.7 "/>
<polyline class="st6" points="27.8,37.8 29,37.3 29.7,37.2 30.5,37.4 31.3,38 "/>
<polyline class="st6" points="38.5,37.4 37.7,36.9 36.7,36.9 35.9,36.9 35.4,37.4 "/>
<polyline class="st6" points="31.7,38.8 31.8,39.3 31.5,39.7 "/>
<polyline class="st6" points="34.6,38.6 34.4,39.1 34.7,39.5 35,39.5 "/>
<polyline class="st1" points="41.8,39.2 42.7,38 43.2,38 43.2,37 44.1,36.6 44.1,35.3 44.9,34.3 44.2,34.3 44.5,33.5 43.5,33.3 
	43.5,32.4 44.4,31.5 43.8,30.5 43.5,29.6 43.3,28.7 42.5,28.2 42.1,27.6 41.6,27.3 41.1,26.4 39.9,25.3 39.3,24.2 37.9,23.1 
	36,22.4 35.4,21.9 34.2,21.9 33.8,20.3 32.7,21.2 32.2,21.7 30.9,21.7 29.9,22.5 29.3,23.9 27.4,23.4 26.4,23.2 24.4,24.5 
	23.3,25.9 23,27.4 21.9,27.4 22.2,27.9 22.4,28.7 21.9,29.7 21.2,30.9 21.2,32.2 20.9,34.3 21.3,35.9 22.2,37.4 22.2,39 22.6,39 
	23,39 24.1,40.6 24.4,38.3 24.5,37.2 24.1,35.1 25.4,33.6 25.1,32.3 25.9,31.5 27.1,31.5 29.2,29.6 30.4,29.6 31.6,28.7 32.7,28.7 
	33.5,28.2 34.6,28.9 35.9,29 37.4,28.2 39.4,30 41.5,35.1 41.4,37.3 41.8,39.2 "/>
</svg>
